<?xml version="1.0" encoding="UTF-8"?>
<svg xmlns="http://www.w3.org/2000/svg" xmlns:xlink="http://www.w3.org/1999/xlink" width="500px" height="500px" viewBox="0 0 500 500" version="1.1">
<defs>
<filter id="alpha" filterUnits="objectBoundingBox" x="0%" y="0%" width="100%" height="100%">
  <feColorMatrix type="matrix" in="SourceGraphic" values="0 0 0 0 1 0 0 0 0 1 0 0 0 0 1 0 0 0 1 0"/>
</filter>
<mask id="mask0">
  <g filter="url(#alpha)">
<rect x="0" y="0" width="500" height="500" style="fill:rgb(0%,0%,0%);fill-opacity:0.992157;stroke:none;"/>
  </g>
</mask>
<clipPath id="clip1">
  <rect x="0" y="0" width="500" height="500"/>
</clipPath>
<g id="surface5" clip-path="url(#clip1)">
<path style=" stroke:none;fill-rule:evenodd;fill:rgb(1.568628%,0.784314%,0%);fill-opacity:1;" d="M 221.605469 -0.191406 C 231.367188 -0.191406 241.125 -0.191406 250.886719 -0.191406 C 250.742188 9.097656 250.886719 18.320312 251.332031 27.480469 C 217.398438 27.632812 184.714844 33.332031 153.28125 44.582031 C 89.511719 70.117188 50.839844 112.84375 37.265625 172.75 C 28.984375 211.414062 32.976562 249.078125 49.246094 285.742188 C 72.980469 334.101562 112.984375 368.113281 169.253906 387.777344 C 198.234375 397.398438 228.257812 402.203125 259.316406 402.191406 C 259.316406 411.796875 259.316406 421.40625 259.316406 431.015625 C 199.320312 431.304688 145.191406 416.25 96.9375 385.855469 C 43.882812 350.011719 12.308594 303.0625 2.21875 245.003906 C 1.226562 238.171875 0.414062 231.382812 -0.222656 224.636719 C -0.222656 216.050781 -0.222656 207.46875 -0.222656 198.886719 C 1.894531 161.195312 14.242188 126.21875 36.824219 93.964844 C 70.773438 49.160156 117.875 20.015625 178.128906 6.535156 C 192.503906 3.414062 206.996094 1.171875 221.605469 -0.191406 Z M 221.605469 -0.191406 "/>
</g>
<mask id="mask1">
  <g filter="url(#alpha)">
<rect x="0" y="0" width="500" height="500" style="fill:rgb(0%,0%,0%);fill-opacity:0.992157;stroke:none;"/>
  </g>
</mask>
<clipPath id="clip2">
  <rect x="0" y="0" width="500" height="500"/>
</clipPath>
<g id="surface8" clip-path="url(#clip2)">
<path style=" stroke:none;fill-rule:evenodd;fill:rgb(4.313726%,1.568628%,0%);fill-opacity:1;" d="M 250.886719 -0.191406 C 256.507812 -0.191406 262.125 -0.191406 267.746094 -0.191406 C 307.777344 2.777344 345.636719 12.320312 381.320312 28.441406 C 435.445312 54.324219 470.789062 93.140625 487.355469 144.886719 C 439.988281 163.1875 390.59375 169.527344 339.175781 163.914062 C 340.121094 157.261719 341.007812 150.597656 341.835938 143.929688 C 373.921875 142.058594 405.867188 139.046875 437.667969 134.894531 C 442.351562 134.234375 446.933594 133.273438 451.417969 132.015625 C 450.476562 129.238281 449.214844 126.546875 447.648438 123.941406 C 424.0625 87.628906 390.125 61.304688 345.828125 44.964844 C 315.527344 34.347656 284.027344 28.519531 251.332031 27.480469 C 250.886719 18.320312 250.742188 9.097656 250.886719 -0.191406 Z M 250.886719 -0.191406 "/>
</g>
<mask id="mask2">
  <g filter="url(#alpha)">
<rect x="0" y="0" width="500" height="500" style="fill:rgb(0%,0%,0%);fill-opacity:0.992157;stroke:none;"/>
  </g>
</mask>
<clipPath id="clip3">
  <rect x="0" y="0" width="500" height="500"/>
</clipPath>
<g id="surface11" clip-path="url(#clip3)">
<path style=" stroke:none;fill-rule:evenodd;fill:rgb(1.568628%,3.529412%,1.960784%);fill-opacity:1;" d="M 249.554688 499.808594 C 242.605469 499.808594 235.65625 499.808594 228.703125 499.808594 C 212.269531 496.007812 203.691406 486.722656 202.972656 471.945312 C 203.613281 456.078125 212.488281 445.449219 229.59375 440.046875 C 236.417969 438.46875 243.074219 438.855469 249.554688 441.199219 C 255.691406 444.714844 259.316406 449.644531 260.425781 455.996094 C 261.46875 464.75 258.4375 472.246094 251.332031 478.476562 C 264.382812 476 271.480469 468.953125 272.625 457.339844 C 270.882812 433.6875 268.960938 410.050781 266.859375 386.433594 C 229.628906 388.046875 199.3125 376.390625 175.910156 351.460938 C 163.984375 337.425781 159.175781 321.667969 161.492188 304.1875 C 163.234375 290.289062 167.667969 277.097656 174.800781 264.605469 C 182.949219 249.519531 193.667969 236.003906 206.964844 224.058594 C 219.003906 214.785156 230.90625 205.367188 242.679688 195.8125 C 240.742188 178.902344 238.671875 161.992188 236.46875 145.082031 C 235.957031 133.789062 237.140625 122.640625 240.019531 111.644531 C 244.296875 97.441406 250.433594 83.859375 258.429688 70.90625 C 264.78125 60.976562 272.765625 52.074219 282.386719 44.195312 C 285.546875 41.972656 288.949219 40.050781 292.589844 38.433594 C 299.289062 36.28125 305.5 37.050781 311.222656 40.738281 C 319.152344 47.226562 324.402344 55.105469 326.972656 64.375 C 330.945312 77.488281 332.277344 90.8125 330.96875 104.34375 C 328.621094 125.152344 323 145.265625 314.109375 164.679688 C 306.949219 178.4375 297.113281 190.542969 284.605469 201 C 278.96875 205.5 273.203125 209.855469 267.300781 214.066406 C 266.535156 214.601562 265.945312 215.242188 265.527344 215.988281 C 267.574219 228.0625 269.347656 240.167969 270.851562 252.304688 C 297.371094 250.246094 317.554688 258.957031 331.410156 278.441406 C 348.097656 302.074219 349.28125 326.289062 334.960938 351.074219 C 326.066406 364.160156 313.570312 373.703125 297.472656 379.707031 C 293.613281 380.992188 289.765625 382.273438 285.9375 383.550781 C 288.378906 406.738281 289.191406 429.988281 288.375 453.304688 C 288.835938 467.878906 283.144531 480.242188 271.296875 490.390625 C 264.863281 494.96875 257.617188 498.109375 249.554688 499.808594 Z M 296.140625 75.132812 C 301.472656 74.78125 304.800781 76.832031 306.121094 81.285156 C 310.117188 109.082031 303.90625 135.089844 287.488281 159.300781 C 281.277344 167.753906 273.292969 174.671875 263.53125 180.054688 C 261.507812 163.140625 261.507812 146.230469 263.53125 129.324219 C 266.609375 113.632812 272.671875 98.902344 281.722656 85.125 C 283.832031 82.527344 286.273438 80.15625 289.042969 78.015625 C 291.277344 76.726562 293.644531 75.765625 296.140625 75.132812 Z M 252.21875 224.25 C 252.851562 224.398438 253.222656 224.78125 253.328125 225.402344 C 254.300781 235.261719 255.039062 245.128906 255.546875 254.996094 C 222.246094 266.160156 206.71875 287.296875 208.960938 318.410156 C 209.582031 330.054688 214.980469 339.597656 225.15625 347.039062 C 229.132812 349.566406 233.496094 351.421875 238.242188 352.613281 C 234.164062 345.984375 231.203125 338.9375 229.371094 331.476562 C 226.347656 316.542969 232.1875 305.074219 246.894531 297.078125 C 250.738281 295.316406 254.660156 293.714844 258.652344 292.273438 C 261.195312 317.734375 263.484375 343.226562 265.527344 368.753906 C 245.992188 368.046875 228.394531 362.730469 212.734375 352.804688 C 195.945312 340.695312 189.511719 325.261719 193.433594 306.496094 C 196.894531 290.070312 203.992188 274.953125 214.730469 261.144531 C 225.222656 247.375 237.71875 235.078125 252.21875 224.25 Z M 276.175781 290.355469 C 292.730469 290.890625 305.226562 297.296875 313.664062 309.570312 C 323.660156 325.054688 322.035156 339.53125 308.785156 352.996094 C 302.035156 359.296875 294.121094 364.164062 285.046875 367.601562 C 282.238281 341.839844 279.28125 316.089844 276.175781 290.355469 Z M 276.175781 290.355469 "/>
</g>
<mask id="mask3">
  <g filter="url(#alpha)">
<rect x="0" y="0" width="500" height="500" style="fill:rgb(0%,0%,0%);fill-opacity:0.996078;stroke:none;"/>
  </g>
</mask>
<clipPath id="clip4">
  <rect x="0" y="0" width="500" height="500"/>
</clipPath>
<g id="surface14" clip-path="url(#clip4)">
<path style=" stroke:none;fill-rule:evenodd;fill:rgb(99.607843%,59.215689%,25.882354%);fill-opacity:1;" d="M 258.429688 70.90625 C 250.433594 83.859375 244.296875 97.441406 240.019531 111.644531 C 237.140625 122.640625 235.957031 133.789062 236.46875 145.082031 C 238.671875 161.992188 240.742188 178.902344 242.679688 195.8125 C 230.90625 205.367188 219.003906 214.785156 206.964844 224.058594 C 193.667969 236.003906 182.949219 249.519531 174.800781 264.605469 C 167.667969 277.097656 163.234375 290.289062 161.492188 304.1875 C 159.175781 321.667969 163.984375 337.425781 175.910156 351.460938 C 159.847656 349.027344 145.355469 343.582031 132.429688 335.125 C 129.050781 332.585938 126.167969 329.703125 123.78125 326.480469 C 123.953125 314.566406 124.101562 302.652344 124.222656 290.738281 C 119.40625 288.234375 114.972656 285.285156 110.914062 281.898438 C 109.035156 280.246094 107.925781 278.257812 107.585938 275.941406 C 107.777344 274.929688 108.148438 273.96875 108.695312 273.058594 C 115.765625 267.960938 122.566406 262.582031 129.105469 256.917969 C 130.828125 254.109375 130.386719 251.546875 127.773438 249.230469 C 121.84375 244.734375 116.371094 239.867188 111.359375 234.628906 C 109.246094 232.152344 109.320312 229.78125 111.578125 227.515625 C 119.433594 225.878906 125.867188 222.355469 130.878906 216.949219 C 132.261719 215.257812 133.222656 213.398438 133.761719 211.375 C 133.613281 211.054688 133.464844 210.734375 133.320312 210.414062 C 126.917969 208.335938 120.855469 205.707031 115.128906 202.535156 C 108.429688 197.054688 108.722656 191.800781 116.015625 186.78125 C 141.15625 173.070312 166.59375 159.746094 192.324219 146.808594 C 193.40625 131.550781 199.394531 117.90625 210.292969 105.878906 C 223.824219 91.546875 239.871094 79.886719 258.429688 70.90625 Z M 258.429688 70.90625 "/>
</g>
<mask id="mask4">
  <g filter="url(#alpha)">
<rect x="0" y="0" width="500" height="500" style="fill:rgb(0%,0%,0%);fill-opacity:0.988235;stroke:none;"/>
  </g>
</mask>
<clipPath id="clip5">
  <rect x="0" y="0" width="500" height="500"/>
</clipPath>
<g id="surface17" clip-path="url(#clip5)">
<path style=" stroke:none;fill-rule:evenodd;fill:rgb(1.568628%,0%,2.745098%);fill-opacity:1;" d="M 493.566406 156.226562 C 494.082031 162.691406 494.15625 169.226562 493.789062 175.828125 C 485.792969 180.667969 477.144531 184.445312 467.835938 187.164062 C 445.070312 193.746094 421.703125 197.71875 397.738281 199.078125 C 379.414062 200.003906 361.078125 200.261719 342.722656 199.847656 C 334.863281 199.644531 327.027344 199.195312 319.210938 198.5 C 323.015625 190.726562 326.859375 182.976562 330.746094 175.25 C 364.277344 176.085938 397.699219 174.804688 431.011719 171.40625 C 447.65625 169.625 463.925781 166.421875 479.8125 161.796875 C 484.652344 160.34375 489.238281 158.484375 493.566406 156.226562 Z M 493.566406 156.226562 "/>
</g>
<mask id="mask5">
  <g filter="url(#alpha)">
<rect x="0" y="0" width="500" height="500" style="fill:rgb(0%,0%,0%);fill-opacity:0.988235;stroke:none;"/>
  </g>
</mask>
<clipPath id="clip6">
  <rect x="0" y="0" width="500" height="500"/>
</clipPath>
<g id="surface20" clip-path="url(#clip6)">
<path style=" stroke:none;fill-rule:evenodd;fill:rgb(1.568628%,0%,2.745098%);fill-opacity:1;" d="M 499.777344 186.203125 C 499.777344 194.785156 499.777344 203.371094 499.777344 211.953125 C 469.285156 223.199219 437.488281 230.054688 404.390625 232.511719 C 365.59375 235.589844 326.996094 234.308594 288.597656 228.671875 C 295.253906 221.113281 301.90625 213.554688 308.5625 205.996094 C 319.925781 206.867188 331.3125 207.636719 342.722656 208.300781 C 359.726562 208.882812 376.730469 209.011719 393.746094 208.6875 C 418.453125 208.023438 442.707031 204.824219 466.503906 199.078125 C 478.277344 196.027344 489.371094 191.734375 499.777344 186.203125 Z M 499.777344 186.203125 "/>
</g>
<mask id="mask6">
  <g filter="url(#alpha)">
<rect x="0" y="0" width="500" height="500" style="fill:rgb(0%,0%,0%);fill-opacity:0.992157;stroke:none;"/>
  </g>
</mask>
<clipPath id="clip7">
  <rect x="0" y="0" width="500" height="500"/>
</clipPath>
<g id="surface23" clip-path="url(#clip7)">
<path style=" stroke:none;fill-rule:evenodd;fill:rgb(1.568628%,0%,2.745098%);fill-opacity:1;" d="M 499.777344 221.558594 C 499.777344 229.246094 499.777344 236.933594 499.777344 244.621094 C 494.621094 248.523438 488.855469 251.660156 482.476562 254.035156 C 465.875 259.5 448.71875 262.957031 431.011719 264.410156 C 398.527344 267.113281 365.992188 267.625 333.40625 265.949219 C 331.761719 265.480469 330.652344 264.519531 330.078125 263.066406 C 322.753906 256.148438 313.660156 252.238281 302.796875 251.34375 C 298.066406 250.738281 293.332031 250.671875 288.597656 251.152344 C 288.597656 247.308594 288.597656 243.464844 288.597656 239.625 C 330.902344 242.714844 373.199219 242.652344 415.484375 239.429688 C 439.589844 237.636719 463.105469 233.410156 486.023438 226.75 C 490.722656 225.226562 495.304688 223.496094 499.777344 221.558594 Z M 499.777344 221.558594 "/>
</g>
<mask id="mask7">
  <g filter="url(#alpha)">
<rect x="0" y="0" width="500" height="500" style="fill:rgb(0%,0%,0%);fill-opacity:0.988235;stroke:none;"/>
  </g>
</mask>
<clipPath id="clip8">
  <rect x="0" y="0" width="500" height="500"/>
</clipPath>
<g id="surface26" clip-path="url(#clip8)">
<path style=" stroke:none;fill-rule:evenodd;fill:rgb(5.490196%,1.960784%,4.705882%);fill-opacity:1;" d="M 496.671875 259.992188 C 497.183594 260.105469 497.480469 260.425781 497.558594 260.953125 C 485.816406 309.894531 458.160156 350.503906 414.597656 382.78125 C 381.339844 405.703125 343.628906 420.367188 301.464844 426.785156 C 301.464844 416.792969 301.464844 406.800781 301.464844 396.808594 C 349.851562 387.578125 390.152344 366.824219 422.359375 334.550781 C 433.023438 323.453125 441.96875 311.347656 449.203125 298.230469 C 419.914062 299.761719 390.632812 301.488281 361.359375 303.421875 C 360.617188 303.292969 359.878906 303.164062 359.140625 303.035156 C 355.703125 294.496094 352.453125 285.914062 349.378906 277.285156 C 388.414062 278.398438 427.011719 275.390625 465.171875 268.253906 C 475.921875 266.066406 486.425781 263.3125 496.671875 259.992188 Z M 496.671875 259.992188 "/>
</g>
</defs>
<g id="surface1">
<use xlink:href="#surface5" mask="url(#mask0)"/>
<use xlink:href="#surface8" mask="url(#mask1)"/>
<use xlink:href="#surface11" mask="url(#mask2)"/>
<use xlink:href="#surface14" mask="url(#mask3)"/>
<use xlink:href="#surface17" mask="url(#mask4)"/>
<use xlink:href="#surface20" mask="url(#mask5)"/>
<use xlink:href="#surface23" mask="url(#mask6)"/>
<use xlink:href="#surface26" mask="url(#mask7)"/>
</g>
</svg>
